<?xml version="1.0" encoding="UTF-8"?>
<svg width="200" height="200" viewBox="0 0 200 200" xmlns="http://www.w3.org/2000/svg">
  <defs>
    <linearGradient id="grad2" x1="0%" y1="0%" x2="100%" y2="100%">
      <stop offset="0%" style="stop-color:#f1c40f;stop-opacity:0.8" />
      <stop offset="100%" style="stop-color:#f39c12;stop-opacity:0.9" />
    </linearGradient>
  </defs>
  
  <!-- Background circle -->
  <circle cx="100" cy="100" r="90" fill="url(#grad2)" />
  
  <!-- Portrait shape -->
  <circle cx="100" cy="85" r="40" fill="#f5f5f5" />
  <path d="M60,145 C60,115 140,115 140,145 L140,190 L60,190 Z" fill="#f5f5f5" />
  
  <!-- Face elements -->
  <circle cx="85" cy="80" r="5" fill="#333" /> <!-- left eye -->
  <circle cx="115" cy="80" r="5" fill="#333" /> <!-- right eye -->
  <path d="M85,95 Q100,105 115,95" fill="none" stroke="#333" stroke-width="2" /> <!-- smile -->
  
  <!-- Hair (long) -->
  <path d="M60,90 Q60,40 100,40 Q140,40 140,90" fill="#4a235a" />
  <path d="M60,90 Q75,85 80,120" fill="#4a235a" />
  <path d="M140,90 Q125,85 120,120" fill="#4a235a" />
  
  <!-- Earrings -->
  <circle cx="70" cy="90" r="3" fill="#f1c40f" />
  <circle cx="130" cy="90" r="3" fill="#f1c40f" />
  
  <!-- Necklace -->
  <path d="M85,120 Q100,130 115,120" fill="none" stroke="#f1c40f" stroke-width="3" />
  <circle cx="100" cy="130" r="4" fill="#f1c40f" />
  
  <!-- Decorative elements -->
  <circle cx="35" cy="50" r="12" fill="#fff" opacity="0.3" />
  <circle cx="165" cy="135" r="8" fill="#fff" opacity="0.2" />
  <circle cx="140" cy="40" r="6" fill="#fff" opacity="0.4" />
</svg>